<?xml version="1.0" standalone="no"?>
<!DOCTYPE svg PUBLIC "-//W3C//DTD SVG 20010904//EN"
 "http://www.w3.org/TR/2001/REC-SVG-20010904/DTD/svg10.dtd">
<svg version="1.0" xmlns="http://www.w3.org/2000/svg"
 width="706.000000pt" height="310.000000pt" viewBox="0 0 706.000000 310.000000"
 preserveAspectRatio="xMidYMid meet">

<g transform="translate(0.000000,310.000000) scale(0.100000,-0.100000)"
fill="#000000" stroke="none">
<path d="M823 2683 c-17 -6 -17 -132 -2 -205 25 -117 81 -185 171 -209 40 -11
59 -10 150 9 56 12 108 22 113 22 6 0 -31 -20 -81 -45 -129 -63 -164 -114
-164 -239 l0 -72 -55 -18 c-105 -33 -149 -106 -161 -268 -8 -106 3 -114 45
-29 17 32 37 61 46 65 9 3 43 6 76 6 l59 0 0 -136 c0 -164 -10 -192 -76 -224
-41 -20 -60 -50 -31 -50 18 0 191 67 264 101 102 49 130 105 120 244 -7 92 8
149 46 179 l25 18 -44 42 -44 43 0 147 c0 163 13 211 65 234 58 27 55 58 55
-503 0 -283 -3 -515 -7 -515 -5 0 -28 6 -53 14 -225 68 -490 -32 -580 -219
-34 -71 -35 -201 -2 -263 35 -65 85 -115 147 -147 71 -35 133 -42 214 -21 34
9 65 16 67 16 10 0 -28 -74 -52 -103 -60 -72 -128 -102 -189 -86 -19 6 -65 30
-101 54 -36 25 -70 42 -75 39 -37 -23 45 -90 145 -119 132 -39 256 40 301 189
l11 38 37 -68 c93 -177 287 -266 498 -230 103 19 183 58 250 125 65 66 89 124
89 219 0 149 -46 205 -225 276 -116 46 -215 99 -215 116 0 13 96 45 195 65 75
15 95 24 123 51 l32 32 0 239 0 240 29 41 c16 22 35 43 41 47 8 5 4 12 -10 22
-43 30 -50 69 -50 285 0 333 -37 432 -185 500 -45 20 -65 22 -190 22 -130 0
-156 -4 -352 -47 -135 -30 -236 -47 -278 -47 -60 0 -69 3 -93 29 -15 15 -36
43 -47 61 -21 35 -32 42 -52 33z m843 -358 c38 -25 53 -100 53 -260 0 -77 -5
-152 -10 -166 -6 -15 -25 -35 -43 -44 l-33 -18 37 -36 c49 -47 60 -89 60 -233
l0 -117 -36 24 c-68 46 -146 21 -188 -60 -22 -42 -25 -84 -11 -154 l8 -44 -26
19 -26 19 -1 537 0 536 63 10 c74 12 121 8 153 -13z m5 -886 c25 -25 21 -64
-12 -110 -19 -27 -19 -30 -3 -36 12 -5 26 3 46 28 l29 34 -3 -74 -3 -73 -53
-29 c-64 -34 -91 -27 -118 30 -25 53 -30 160 -10 200 27 52 90 67 127 30z
m-541 -273 c87 -30 184 -124 197 -188 7 -33 7 -33 41 -9 15 10 72 41 127 69
l100 51 30 -23 c16 -13 45 -31 63 -40 l33 -17 -42 -23 c-51 -26 -89 -90 -89
-147 0 -31 -8 -46 -38 -79 -33 -34 -45 -40 -80 -40 -65 0 -83 53 -37 108 30
36 31 42 5 42 -34 0 -70 -44 -70 -84 0 -53 19 -84 57 -97 52 -17 100 -3 139
39 21 23 37 33 42 26 28 -41 41 -54 76 -78 60 -40 153 -32 194 17 11 12 7 16
-22 21 -46 9 -66 30 -66 68 0 47 25 68 81 68 108 0 167 -117 127 -254 -18 -59
-108 -148 -173 -169 -65 -21 -130 -31 -151 -23 -15 6 -15 9 6 31 30 32 38 101
16 143 -14 27 -73 82 -88 82 -3 0 -8 -17 -12 -38 -23 -147 -194 -125 -298 37
-15 25 -28 52 -28 61 0 9 16 40 35 70 32 50 44 90 29 90 -4 0 -24 -16 -46 -35
-21 -20 -43 -33 -47 -31 -5 3 -11 23 -15 43 -9 56 -49 135 -92 183 -40 44
-127 100 -156 100 -27 0 -21 17 10 28 38 14 100 13 142 -2z m-186 -71 c41 -17
66 -58 66 -110 0 -46 -29 -75 -75 -75 -27 0 -35 -4 -35 -18 0 -28 44 -63 87
-69 71 -9 129 64 117 149 l-5 43 25 -30 c28 -32 60 -108 71 -167 6 -31 4 -38
-17 -51 -34 -22 -144 -36 -205 -27 -83 14 -149 55 -179 112 -17 32 -18 115 -3
155 17 45 74 99 110 102 4 1 23 -6 43 -14z"/>
<path d="M5295 1973 c-6 -79 -20 -137 -40 -161 -1 -1 -18 5 -38 13 -44 18 -47
18 -47 2 0 -8 18 -19 40 -26 29 -9 40 -17 40 -31 0 -17 -7 -20 -45 -20 -33 0
-45 -4 -45 -15 0 -11 11 -15 39 -15 34 0 51 -12 51 -35 0 -1 -18 -10 -40 -19
-46 -18 -56 -42 -12 -31 48 13 55 11 65 -20 5 -16 22 -49 37 -71 l28 -42 -25
-13 c-14 -8 -46 -36 -71 -64 -185 -205 -123 -529 125 -652 65 -32 86 -37 162
-41 111 -5 178 13 264 72 l63 43 28 -43 c40 -63 70 -84 123 -84 63 0 103 40
103 103 0 38 -9 57 -70 145 -74 107 -81 129 -60 204 22 77 84 118 182 118 87
1 132 117 70 180 -37 37 -88 46 -170 31 -106 -20 -178 -64 -243 -150 l-25 -35
-49 68 c-43 61 -47 69 -31 78 42 23 84 71 109 122 26 52 29 55 53 46 55 -21
63 2 8 25 -26 11 -34 19 -30 31 3 8 6 18 6 20 0 2 18 4 40 4 52 0 51 14 -2 26
-59 13 -63 39 -9 55 55 16 53 33 -2 25 -40 -6 -44 -5 -55 19 -7 14 -12 70 -12
125 0 62 -4 100 -10 100 -6 0 -38 -14 -70 -30 -59 -30 -62 -30 -124 -19 -48 9
-78 9 -120 1 -55 -11 -57 -11 -114 23 -31 19 -60 35 -64 35 -3 0 -9 -44 -13
-97z m319 -803 l95 -135 -26 -27 c-63 -66 -182 -76 -250 -21 -67 53 -78 76
-78 157 0 64 4 78 28 114 16 22 47 50 70 61 38 19 41 19 53 3 6 -9 55 -78 108
-152z"/>
<path d="M3398 1963 c-79 -29 -115 -62 -124 -110 -8 -43 9 -65 26 -33 11 21
45 39 143 74 45 17 47 19 47 57 0 46 -2 46 -92 12z"/>
<path d="M3320 1735 c-74 -29 -85 -36 -88 -59 -3 -24 -1 -26 22 -20 l26 6 0
-295 c0 -325 0 -327 -61 -327 -23 0 -36 10 -65 50 -42 58 -71 65 -103 24 -26
-33 -27 -78 -2 -103 11 -11 45 -25 76 -32 56 -12 60 -12 174 27 74 25 126 49
144 66 l27 26 0 324 c0 239 -3 327 -12 336 -18 18 -44 13 -138 -23z"/>
<path d="M2728 1727 c-81 -29 -88 -34 -88 -59 0 -25 2 -26 30 -18 l30 9 0
-178 c0 -163 -2 -180 -20 -204 -11 -14 -20 -28 -20 -31 0 -8 245 -8 253 0 3 4
-3 18 -14 33 -18 24 -19 41 -17 190 l3 164 28 10 c16 5 31 6 35 3 3 -4 8 -91
12 -194 6 -206 10 -220 69 -248 39 -19 71 -15 154 16 49 18 57 25 57 47 0 22
-3 24 -22 18 -66 -20 -62 -28 -68 175 -6 195 -10 213 -56 249 -33 26 -65 26
-139 1 -71 -25 -75 -25 -75 -2 0 22 -30 52 -51 51 -8 0 -53 -15 -101 -32z"/>
<path d="M4138 1727 c-83 -30 -88 -34 -88 -61 0 -18 4 -26 13 -23 51 21 47 34
47 -165 0 -172 -1 -186 -20 -203 -11 -10 -20 -22 -20 -27 0 -4 59 -8 130 -8
72 0 130 3 130 6 0 3 -9 17 -20 31 -18 23 -20 41 -20 188 l0 163 30 12 c17 7
34 9 38 6 4 -4 9 -93 12 -197 l5 -189 33 -32 c28 -28 39 -33 80 -32 26 0 73
11 105 23 48 19 57 26 57 47 0 22 -3 24 -22 18 -13 -4 -32 -8 -43 -8 -19 -1
-20 7 -25 184 -5 187 -9 208 -48 243 -36 33 -72 35 -136 10 -72 -28 -86 -29
-86 -5 0 22 -30 52 -51 51 -8 0 -53 -15 -101 -32z"/>
<path d="M4815 1741 c-131 -39 -169 -79 -162 -169 4 -58 30 -95 81 -117 24
-10 39 -9 89 6 33 10 64 16 69 13 4 -3 8 -39 8 -80 0 -71 -2 -78 -30 -106 -49
-49 -64 -36 -68 55 -2 42 -5 77 -8 77 -2 0 -31 -7 -64 -17 l-60 -16 0 -61 c0
-34 4 -66 8 -73 29 -46 185 -58 267 -19 118 55 160 180 85 255 -53 53 -113 60
-204 25 -14 -5 -16 4 -16 70 0 68 3 80 25 101 45 46 65 30 65 -56 0 -27 3 -49
7 -49 4 0 33 7 65 16 l58 17 0 47 c0 71 -22 93 -96 96 -35 2 -83 -4 -119 -15z"/>
<path d="M2231 1699 c-74 -27 -139 -53 -144 -58 -13 -13 -3 -47 14 -42 8 2 22
6 31 8 17 5 17 3 2 -33 -22 -53 -15 -164 14 -220 46 -90 150 -144 244 -129
213 36 308 283 172 444 -34 41 -116 81 -164 80 -19 0 -95 -22 -169 -50z m167
-207 c2 -198 2 -201 -20 -213 -18 -10 -24 -8 -40 11 -16 20 -18 43 -18 205 l0
183 28 10 c15 6 32 9 37 8 6 -2 11 -80 13 -204z"/>
<path d="M3643 1701 c-72 -27 -136 -52 -142 -56 -6 -3 -11 -18 -11 -32 0 -20
4 -24 18 -18 50 21 51 20 35 -27 -20 -57 -13 -160 15 -214 80 -156 289 -174
415 -35 37 41 67 119 67 176 0 133 -114 256 -236 255 -16 -1 -88 -23 -161 -49z
m165 -209 c2 -195 2 -201 -18 -212 -45 -24 -50 -4 -50 207 0 191 0 194 23 203
12 5 27 7 32 6 6 -2 11 -80 13 -204z"/>
<path d="M2441 1089 c-82 -24 -140 -82 -191 -192 -137 -293 -61 -620 167 -724
47 -22 65 -25 118 -20 37 4 86 17 121 34 49 23 59 32 59 53 0 34 -31 37 -86 9
-63 -32 -145 -36 -195 -11 -50 26 -120 101 -144 155 -87 198 -10 539 140 615
54 27 119 29 149 5 13 -11 24 -34 27 -58 13 -95 26 -115 78 -115 104 0 77 135
-42 211 -74 47 -131 58 -201 38z"/>
<path d="M2811 1066 c-8 -9 -10 -138 -9 -457 l3 -444 24 -3 c13 -2 28 2 32 10
5 7 9 81 9 165 l0 152 31 36 c61 69 156 69 185 -1 9 -22 14 -74 14 -154 0
-126 10 -170 46 -201 48 -41 136 -30 178 23 l24 31 32 -26 c56 -48 124 -55
192 -21 24 12 31 12 63 -7 45 -27 92 -20 139 22 33 28 35 29 48 11 27 -38 66
-54 132 -55 54 -1 71 4 105 26 23 15 41 32 41 38 0 5 17 -4 38 -20 80 -64 206
-61 262 7 16 19 32 49 36 64 4 20 15 32 32 38 15 5 39 16 54 24 l27 15 3 -87
c3 -83 4 -87 27 -90 13 -2 28 2 32 10 5 7 9 84 9 170 l0 157 31 35 c52 60 125
57 161 -6 8 -14 15 -79 18 -170 5 -144 5 -147 33 -176 51 -53 128 -51 180 4
l31 32 28 -19 c92 -66 226 -63 295 6 28 28 33 40 33 83 0 77 -42 112 -170 142
-101 23 -142 58 -120 100 13 25 61 50 94 50 31 0 74 -18 103 -43 28 -24 67
-19 71 10 4 27 -61 78 -121 94 -110 29 -217 -38 -217 -137 0 -70 49 -106 204
-149 55 -16 96 -43 96 -64 0 -6 -11 -23 -24 -38 -22 -26 -30 -28 -94 -28 -95
0 -140 33 -156 116 -6 30 -32 45 -51 29 -7 -6 -15 -33 -19 -61 -8 -58 -41 -99
-80 -99 -39 0 -48 31 -55 190 -7 161 -15 184 -74 220 -54 34 -91 35 -148 8
-48 -25 -50 -25 -60 -6 -6 12 -19 18 -32 16 -20 -3 -22 -9 -25 -88 -3 -115 -6
-125 -49 -155 -56 -38 -63 -34 -63 34 0 97 -34 161 -104 198 -48 25 -137 14
-183 -23 -59 -47 -73 -84 -73 -192 0 -98 -12 -144 -47 -175 -27 -24 -86 -32
-121 -18 -50 21 -57 43 -60 203 l-4 147 48 3 c87 6 85 68 -2 68 l-44 0 -2 171
c-3 148 -5 173 -20 182 -12 8 -21 7 -32 -2 -13 -11 -16 -40 -16 -182 l0 -169
-30 0 c-56 0 -51 -62 4 -68 l28 -4 -4 -131 c-2 -111 -6 -138 -24 -167 -26 -45
-67 -61 -92 -37 -15 15 -17 43 -20 200 -2 104 -8 187 -14 194 -7 8 -37 11 -96
9 -170 -6 -232 -73 -232 -251 0 -122 -32 -182 -92 -173 -32 4 -46 65 -47 203
-1 126 -15 165 -70 202 -45 30 -126 31 -181 3 l-40 -20 0 228 c0 228 -3 252
-36 252 -6 0 -17 -6 -23 -14z m759 -646 c0 -136 -2 -152 -20 -170 -31 -31 -69
-36 -109 -14 -51 27 -71 73 -71 164 0 120 44 169 153 170 l47 0 0 -150z m756
135 c10 -8 14 -15 7 -15 -23 0 -73 -52 -82 -86 -18 -65 21 -135 85 -153 39
-10 40 -26 6 -61 -34 -34 -72 -39 -127 -16 -52 22 -65 58 -65 177 l0 101 34
34 c28 28 41 34 78 34 24 0 53 -7 64 -15z m52 -143 c3 -46 1 -53 -14 -50 -9 1
-25 14 -36 29 -25 34 -10 82 25 77 19 -3 22 -10 25 -56z"/>
</g>
</svg>
